<svg id="visual" viewBox="0 0 900 600" width="900" height="600" xmlns="http://www.w3.org/2000/svg" xmlns:xlink="http://www.w3.org/1999/xlink" version="1.1"><g transform="translate(447.0885112823551 307.73332880139463)"><path d="M98.1 -174.1C129.6 -151.8 159.2 -130.4 192.5 -101.5C225.9 -72.7 262.9 -36.3 255.1 -4.5C247.3 27.3 194.7 54.7 164.3 88.6C133.9 122.5 125.7 163 102 183C78.3 203 39.2 202.5 7.1 190.2C-25 178 -50 153.9 -89 142.8C-127.9 131.6 -180.9 133.3 -213.7 111.7C-246.6 90 -259.3 45 -243.7 9C-228.1 -27 -184.2 -54 -151.8 -76.4C-119.4 -98.7 -98.4 -116.5 -75 -143.5C-51.7 -170.5 -25.8 -206.7 3.7 -213.2C33.3 -219.7 66.7 -196.5 98.1 -174.1" fill="#68D391"></path></g></svg>