<svg id="visual" viewBox="0 0 900 600" width="900" height="600" xmlns="http://www.w3.org/2000/svg" xmlns:xlink="http://www.w3.org/1999/xlink" version="1.1"><g transform="translate(426.32465995959296 291.73231191919666)"><path d="M122.4 -227.3C144.7 -199 139.5 -138.3 141.7 -95C143.8 -51.7 153.4 -25.8 167.7 8.2C182 42.3 201 84.7 198.1 126.7C195.1 168.7 170.3 210.3 133.7 235.8C97 261.3 48.5 270.7 6.3 259.8C-36 249 -72 218 -97.7 186.2C-123.4 154.4 -138.8 121.7 -145.8 90.5C-152.8 59.3 -151.4 29.7 -149.5 1.1C-147.6 -27.5 -145.3 -55 -135.3 -81.1C-125.4 -107.3 -108 -132 -84.1 -159.4C-60.3 -186.8 -30.2 -216.9 9.9 -234.1C50 -251.3 100 -255.5 122.4 -227.3" fill="#68D391"></path></g></svg>