<svg id="visual" viewBox="0 0 900 600" width="900" height="600" xmlns="http://www.w3.org/2000/svg" xmlns:xlink="http://www.w3.org/1999/xlink" version="1.1"><g transform="translate(472.64497620786284 305.47742506317695)"><path d="M91.8 -169.2C114.6 -145.8 125.7 -112.4 134.1 -82.5C142.6 -52.7 148.3 -26.3 156.9 5C165.6 36.3 177.2 72.7 175.9 114.8C174.5 157 160.3 204.9 128.8 211.8C97.3 218.6 48.7 184.3 8.3 169.9C-32 155.4 -64 160.9 -93.6 152.9C-123.2 145 -150.4 123.8 -159.9 96C-169.4 68.3 -161.2 34.2 -174.9 -7.9C-188.6 -50 -224.2 -100 -221.1 -138.8C-218 -177.7 -176.3 -205.3 -133 -216.8C-89.7 -228.3 -44.8 -223.7 -5.2 -214.7C34.5 -205.8 69 -192.5 91.8 -169.2" fill="#68D391"></path></g></svg>